{"title":"The.Way.Of.The.Dragon.1972.1080p.BluRay.x264-Japhson","uid":11994764,"size":8534869492,"categoryP":"video","categoryS":"hd___movies","magnet":"?xt=urn:btih:c1d69703f5af11c533808fd4a6050ec050215731&amp;dn=The.Way.Of.The.Dragon.1972.1080p.BluRay.x264-Japhson&amp;tr=udp%3A%2F%2Ftracker.openbittorrent.com%3A80&amp;tr=udp%3A%2F%2Fopen.demonii.com%3A1337&amp;tr=udp%3A%2F%2Ftracker.coppersurfer.tk%3A6969&amp;tr=udp%3A%2F%2Fexodus.desync.com%3A6969","seeders":1,"leechers":0,"uploader":"vickey1992","files":3,"time":1433601011,"description":"Â²        Release iNFO                                                          Â²\nÂ²                                                                              Â²\nÂ²                                                                              Â²\nÂ²        DIVX RELEASE.....09/10/29                                             Â²  \nÂ²        RIPPER.....  Japhson                                                  Â²  \nÂ²        IMDB RATE.....7.0/10   6,075 votes                                    Â²  \nÂ²        Country: .....Hong Kong                                               Â²\nÂ²        HD Source.........1080P BluRay                                        Â² \nÂ²        FRAME RATE.....23.976Fps                                              Â²\nÂ²        VIDEO CODEC.....X264  10889K                                          Â²\nÂ²        AUDIO CODEC....AC3 640K                                               Â² \nÂ²        RESOLUTION....1920x816                                                Â²   \nÂ²        RUNTIME...99MINS                                                      Â²   \nÂ²        GENERE.....Action | Comedy | Crime | Drama | Thriller                 Â²  \nÂ²        LANGUAGE.....Cantonese                                                Â²     \nÂ²                                                                              Â²\nÂ²        SUBSTITLE....English                                                  Â² \nÂ²                                                                              Â² \nÂ²        MOVIE SIZE..... 1CD x86x100MB                                         Â²  \nÂ²                                                                              Â²\nÂ²       &lt;a href=&quot; http://www.imdb.com/title/tt0068935/&quot; rel=&quot;nofollow&quot; target=&quot;_NEW&quot;&gt; http://www.imdb.com/title/tt0068935/&lt;/a&gt;                                  Â² \n\n\nVideo\nID                                       : 1\nFormat                                   : AVC\nFormat/Info                              : Advanced Video Codec\nFormat profile                           : &lt;a class=&quot;__cf_email__&quot; href=&quot;/cdn-cgi/l/email-protection&quot; data-cfemail=&quot;6e260709062e225a405f&quot;&gt;[email&amp;#160;protected]&lt;/a&gt;&lt;script data-cfhash='f9e31' type=&quot;text/javascript&quot;&gt;\n/* &lt;![CDATA[ */!function(){try{var t=&quot;currentScript&quot;in document?document.currentScript:function(){for(var t=document.getElementsByTagName(&quot;script&quot;),e=t.length;e--;)if(t[e].getAttribute(&quot;data-cfhash&quot;))return t[e]}();if(t&amp;&amp;t.previousSibling){var e,r,n,i,c=t.previousSibling,a=c.getAttribute(&quot;data-cfemail&quot;);if(a){for(e=&quot;&quot;,r=parseInt(a.substr(0,2),16),n=2;a.length-n;n+=2)i=parseInt(a.substr(n,2),16)^r,e+=String.fromCharCode(i);e=document.createTextNode(e),c.parentNode.replaceChild(e,c)}t.parentNode.removeChild(t);}}catch(u){}}()/* ]]&gt; */&lt;/script&gt;\nFormat settings, CABAC                   : Yes\nFormat settings, ReFrames                : 5 frames\nCodec ID                                 : V_MPEG4/ISO/AVC\nDuration                                 : 1h 38mn\nBit rate                                 : 10.9 Mbps\nWidth                                    : 1 920 pixels\nHeight                                   : 816 pixels\nDisplay aspect ratio                     : 2.35:1\nFrame rate mode                          : Constant\nFrame rate                               : 23.976 fps\nColor space                              : YUV\nChroma subsampling                       : 4:2:0\nBit depth                                : 8 bits\nScan type                                : Progressive\nBits/(Pixel*Frame)                       : 0.290\nStream size                              : 7.35 GiB (92%)\nWriting library                          : x264 core 77 r1294 813fe72\nEncoding settings                        : cabac=1 / ref=5 / deblock=1:-1:-1 / analyse=0x3:0x113 / me=umh / subme=7 / psy=1 / psy_rd=1.0:0.0 / mixed_ref=1 / me_range=16 / chroma_me=1 / trellis=2 / 8x8dct=1 / cqm=0 / deadzone=21,11 / chroma_qp_offset=-2 / threads=6 / nr=0 / decimate=1 / mbaff=0 / constrained_intra=0 / bframes=3 / b_pyramid=0 / b_adapt=2 / b_bias=0 / direct=3 / wpredb=1 / keyint=250 / keyint_min=25 / scenecut=40 / rc_lookahead=40 / rc=2pass / mbtree=1 / bitrate=10889 / ratetol=1.0 / qcomp=0.60 / qpmin=10 / qpmax=51 / qpstep=4 / cplxblur=20.0 / qblur=0.5 / vbv_maxrate=50000 / vbv_bufsize=50000 / ip_ratio=1.40 / aq=1:1.00\nLanguage                                 : Chinese\nDefault                                  : Yes\nForced                                   : No\n\nAudio\nID                                       : 2\nFormat                                   : AC-3\nFormat/Info                              : Audio Coding 3\nMode extension                           : CM (complete main)\nFormat settings, Endianness              : Big\nCodec ID                                 : A_AC3\nDuration                                 : 1h 38mn\nBit rate mode                            : Constant\nBit rate                                 : 640 Kbps\nChannel(s)                               : 6 channels\nChannel positions                        : Front: L C R, Side: L R, LFE\nSampling rate                            : 48.0 KHz\nBit depth                                : 16 bits\nCompression mode                         : Lossy\nStream size                              : 452 MiB (6%)\nLanguage                                 : Chinese\nDefault                                  : Yes\nForced                                   : No\n\nText\nID                                       : 3\nFormat                                   : UTF-8\nCodec ID                                 : S_TEXT/UTF8\nCodec ID/Info                            : UTF-8 Plain Text\nLanguage                                 : English\nDefault                                  : Yes\nForced                                   : No","torrent":{"xt":"urn:btih:c1d69703f5af11c533808fd4a6050ec050215731","amp;dn":"The.Way.Of.The.Dragon.1972.1080p.BluRay.x264-Japhson","amp;tr":["udp%3A%2F%2Ftracker.openbittorrent.com%3A80","udp%3A%2F%2Fopen.demonii.com%3A1337","udp%3A%2F%2Ftracker.coppersurfer.tk%3A6969","udp%3A%2F%2Fexodus.desync.com%3A6969"],"infoHash":"c1d69703f5af11c533808fd4a6050ec050215731","infoHashBuffer":{"type":"Buffer","data":[193,214,151,3,245,175,17,197,51,128,143,212,166,5,14,192,80,33,87,49]},"announce":[],"urlList":[]}}